# xmcd
#
# Track frame offsets: 
#        150
#        17715
#        39145
#        57252
#        85222
#        103862
#        120052
#        139037
#        158657
#        174855
#
# Disc length: 2604 seconds
#
# Revision: 0
# Processed by: cddbd v1.4PL0 Copyright (c) Steve Scherf et al.
# Submitted via: ExactAudioCopy v0.90b4
#
DISCID=6a0a2a0a
DTITLE=Johnnie Taylor - Cheaper to keep her
DYEAR=1997
DGENRE=R&B
TTITLE0=Everything's Out In The Open
TTITLE1=That's Just A Woman's Way
TTITLE2=You Knocked My Heart Out Of Line
TTITLE3=Money's Running Funny
TTITLE4=Nothing But The Blues
TTITLE5=She's Cheating On Me
TTITLE6=Nothing As Beautiful As You
TTITLE7=Cheaper To Keep Her
TTITLE8=No Refund
TTITLE9=Something Is Going Wrong
EXTD=
EXTT0=
EXTT1=
EXTT2=
EXTT3=
EXTT4=
EXTT5=
EXTT6=
EXTT7=
EXTT8=
EXTT9=
PLAYORDER=
